<?xml version="1.0" encoding="utf-8"?>
<!-- Generator: Adobe Illustrator 19.2.1, SVG Export Plug-In . SVG Version: 6.00 Build 0)  -->
<svg version="1.1" id="layer" xmlns="http://www.w3.org/2000/svg" xmlns:xlink="http://www.w3.org/1999/xlink" x="0px" y="0px"
	 viewBox="0 0 652 652" style="enable-background:new 0 0 652 652;" xml:space="preserve">
<style type="text/css">
	.st0{fill:#14377D;}
	.st1{fill:#15BEF0;}
</style>
<g>
	<path class="st0" d="M127.1,315.3h-6.1c-0.5,0-0.8-0.4-0.8-0.8v-4.6c0-0.4,0.3-0.8,0.8-0.8h18.7c0.5,0,0.8,0.4,0.8,0.8v4.6
		c0,0.4-0.3,0.8-0.8,0.8h-6.1v22.6c0,0.4-0.4,0.8-0.8,0.8h-5.1c-0.4,0-0.8-0.4-0.8-0.8v-22.6H127.1z M147.7,337.9
		c0,0.4,0.4,0.8,0.8,0.8h5c0.5,0,0.8-0.4,0.8-0.8v-11.2h12.1v11.2c0,0.4,0.3,0.8,0.8,0.8h5c0.4,0,0.8-0.4,0.8-0.8v-28
		c0-0.4-0.4-0.8-0.8-0.8h-5c-0.5,0-0.8,0.4-0.8,0.8v10.7h-12.1v-10.7c0-0.4-0.3-0.8-0.8-0.8h-5c-0.4,0-0.8,0.4-0.8,0.8V337.9z
		 M183.5,337.9c0,0.4,0.3,0.8,0.8,0.8h17.5c0.5,0,0.8-0.4,0.8-0.8v-4.6c0-0.4-0.3-0.8-0.8-0.8h-11.7v-5.7h9.7c0.4,0,0.8-0.3,0.8-0.8
		v-4.6c0-0.4-0.4-0.8-0.8-0.8h-9.7v-5.2h11.7c0.5,0,0.8-0.4,0.8-0.8v-4.6c0-0.4-0.3-0.8-0.8-0.8h-17.5c-0.5,0-0.8,0.4-0.8,0.8V337.9
		z M235.4,338.6c0.2,0.2,0.4,0.5,0.7,0.5h0.4c0.3,0,0.6-0.2,0.7-0.5l13.2-28.5c0.2-0.6-0.1-1.1-0.7-1.1h-5.7c-0.3,0-0.7,0.2-0.7,0.5
		l-7,15.4h-0.2l-7-15.4c-0.1-0.2-0.4-0.5-0.7-0.5h-5.7c-0.7,0-1,0.6-0.7,1.1L235.4,338.6z M257.3,337.9c0,0.4,0.4,0.8,0.8,0.8h5.1
		c0.4,0,0.8-0.4,0.8-0.8v-28c0-0.4-0.4-0.8-0.8-0.8h-5.1c-0.4,0-0.8,0.4-0.8,0.8V337.9z M277.9,337.9c0,0.4,0.4,0.8,0.8,0.8h5.1
		c0.4,0,0.8-0.4,0.8-0.8v-22.6h6.1c0.5,0,0.8-0.4,0.8-0.8v-4.6c0-0.4-0.3-0.8-0.8-0.8H272c-0.5,0-0.8,0.4-0.8,0.8v4.6
		c0,0.4,0.3,0.8,0.8,0.8h6.1v22.6H277.9z M304,328.6l3.2-7l0,0l3.2,7H304z M293.1,337.5c-0.2,0.6,0.1,1.1,0.7,1.1h4.7
		c0.8,0,1.3-0.5,1.5-1l1.5-3.4h11.5l1.5,3.3c0.4,0.8,0.7,1.1,1.5,1.1h4.7c0.7,0,1-0.6,0.7-1.1l-13.2-28.5c-0.2-0.2-0.4-0.5-0.7-0.5
		H307c-0.3,0-0.6,0.2-0.7,0.5L293.1,337.5 M327.4,337.7c-0.1,0.6,0.3,0.9,0.8,0.9h5c0.4,0,0.7-0.3,0.8-0.7l1.8-13.1h0.1l7.2,13.7
		c0.2,0.2,0.5,0.5,0.7,0.5h0.7c0.2,0,0.6-0.2,0.7-0.5l7.1-13.7h0.1l1.9,13.1c0,0.3,0.4,0.7,0.8,0.7h5c0.5,0,0.9-0.4,0.8-0.9
		l-4.7-28.4c-0.1-0.4-0.4-0.7-0.7-0.7h-0.7c-0.2,0-0.6,0.2-0.7,0.4l-9.8,18.2h-0.1l-10-18.2c-0.2-0.2-0.5-0.4-0.7-0.4h-0.7
		c-0.3,0-0.7,0.3-0.7,0.7L327.4,337.7z M369.5,337.9c0,0.4,0.4,0.8,0.8,0.8h5.1c0.4,0,0.8-0.4,0.8-0.8v-28c0-0.4-0.4-0.8-0.8-0.8
		h-5.1c-0.4,0-0.8,0.4-0.8,0.8V337.9z M386.5,337.9c0,0.4,0.4,0.8,0.8,0.8h5c0.5,0,0.8-0.4,0.8-0.8v-15.7l0,0l16.7,16.8
		c0.1,0.1,0.4,0.2,0.6,0.2h0.7c0.4,0,0.8-0.3,0.8-0.7v-28.6c0-0.4-0.4-0.8-0.8-0.8H406c-0.5,0-0.8,0.4-0.8,0.8v15l0,0l-16.9-16.2
		h-1.1c-0.4,0-0.8,0.3-0.8,0.7L386.5,337.9z M435.2,334.6c-0.3,0.6-0.2,0.7,0.2,1.2c1,1,4,3.2,9.5,3.2c6.2,0,10-4.4,10-8.7
		c0-5.7-5.2-8.3-8.6-9.7c-3.3-1.3-4.6-2.5-4.6-4.1c0-1.2,1.2-2.2,2.7-2.2c2.6,0,5.7,2.3,6.1,2.5c0.4,0.3,1.2-0.1,1.4-0.6l2.2-3.2
		c0.2-0.3,0.2-1.1-0.2-1.3c-1.2-0.9-4.7-3.2-9.1-3.2c-6.5,0-9.7,4.2-9.7,8.4c0,5.1,4.6,7.9,8.2,9.3c2.9,1.2,4.3,2.5,4.3,4.2
		c0,1.5-1.2,2.5-2.9,2.5c-2.8,0-5.8-2.2-6-2.3c-0.3-0.2-1.1-0.3-1.4,0.2L435.2,334.6 M463.5,337.9c0,0.4,0.4,0.8,0.8,0.8h5
		c0.5,0,0.8-0.4,0.8-0.8v-11.2h12.1v11.2c0,0.4,0.3,0.8,0.8,0.8h5c0.4,0,0.8-0.4,0.8-0.8v-28c0-0.4-0.4-0.8-0.8-0.8h-5
		c-0.5,0-0.8,0.4-0.8,0.8v10.7h-12.1v-10.7c0-0.4-0.3-0.8-0.8-0.8h-5c-0.4,0-0.8,0.4-0.8,0.8V337.9z M512.4,332.3
		c-4.6,0-8.4-3.8-8.4-8.4c0-4.7,3.8-8.5,8.4-8.5c4.7,0,8.5,3.8,8.5,8.5C520.8,328.6,517.1,332.3,512.4,332.3 M512.4,308.7
		c-8.5,0-15.2,6.8-15.2,15.2c0,8.5,6.7,15.2,15.2,15.2c8.5,0,15.2-6.7,15.2-15.2C527.7,315.5,520.8,308.7,512.4,308.7 M542.6,321.8
		v-6.5h4c1.8,0,3.3,1.3,3.3,3.2c0,1.9-1.5,3.3-3.3,3.3H542.6z M536.1,337.9c0,0.4,0.3,0.8,0.8,0.8h5c0.4,0,0.8-0.4,0.8-0.8V328h4.4
		c5.2,0,9.4-4.2,9.4-9.5c0-5.1-4.2-9.3-9.5-9.3h-10.2c-0.5,0-0.8,0.4-0.8,0.8L536.1,337.9L536.1,337.9z M570.4,321.8v-6.5h4
		c1.8,0,3.3,1.3,3.3,3.2c0,1.9-1.5,3.3-3.3,3.3H570.4z M563.9,337.9c0,0.4,0.3,0.8,0.8,0.8h5c0.4,0,0.8-0.4,0.8-0.8V328h4.4
		c5.2,0,9.4-4.2,9.4-9.5c0-5.1-4.2-9.3-9.5-9.3h-10.2c-0.5,0-0.8,0.4-0.8,0.8L563.9,337.9L563.9,337.9z M591.6,337.9
		c0,0.4,0.3,0.8,0.8,0.8h17.5c0.5,0,0.8-0.4,0.8-0.8v-4.6c0-0.4-0.3-0.8-0.8-0.8h-11.7v-5.7h9.7c0.4,0,0.8-0.3,0.8-0.8v-4.6
		c0-0.4-0.4-0.8-0.8-0.8h-9.7v-5.2h11.7c0.5,0,0.8-0.4,0.8-0.8v-4.6c0-0.4-0.3-0.8-0.8-0.8h-17.5c-0.5,0-0.8,0.4-0.8,0.8V337.9z"/>
	<path class="st0" d="M620.7,312.1c0,1.7-1.4,3.2-3.2,3.2c-1.7,0-3.2-1.4-3.2-3.2c0-1.7,1.4-3.1,3.2-3.1
		C619.2,309,620.7,310.3,620.7,312.1z M615.1,312.1c0,1.4,1.1,2.5,2.4,2.5s2.4-1.1,2.4-2.5c0-1.4-1-2.5-2.4-2.5
		C616.2,309.7,615.1,310.7,615.1,312.1z M617,313.7h-0.7v-3.1c0.2,0,0.7-0.1,1.2-0.1c0.6,0,0.8,0.1,1.1,0.2c0.2,0.2,0.3,0.3,0.3,0.7
		c0,0.4-0.2,0.7-0.7,0.7l0,0c0.3,0.1,0.4,0.3,0.6,0.7c0.1,0.5,0.2,0.7,0.2,0.7h-0.7c-0.1-0.1-0.2-0.4-0.2-0.7
		c-0.1-0.3-0.2-0.5-0.7-0.5H617V313.7z M617,312h0.3c0.4,0,0.7-0.2,0.7-0.4c0-0.2-0.2-0.5-0.7-0.5c-0.2,0-0.3,0-0.4,0L617,312
		L617,312z"/>
</g>
<g>
	<path class="st1" d="M114.5,287.3c-3.8-2.7-23.4-6.2-32.5,5c-16.2,20.3,5.2,45.7,5.2,45.7L114.5,287.3z"/>
	<path class="st0" d="M73.8,324.3c-4.8-9-11.2-22.1-12-23.6c-7.7-13.5-18-14.9-24.1-14.9H20.6c0,0,37.2,71.2,37.7,72.1
		c2.3,3.7,5.7,5.2,9.2,5.2c3.6,0,6.8-1.3,9.2-5.2l0,0l10.6-20C87.3,338,81.9,339.5,73.8,324.3"/>
</g>
</svg>
